<svg id="Layer_1" data-name="Layer 1" xmlns="http://www.w3.org/2000/svg" viewBox="0 0 300 300"><defs><style>.cls-1{fill:#f2f2f2;}</style></defs><path class="cls-1" d="M249.22,166.36c0-.05-.1,0-.16,0a17.76,17.76,0,0,0-7.3,3.21l7.38-3.12C249.16,166.48,249.25,166.41,249.22,166.36Z"/><path class="cls-1" d="M251.54,166.07l2.93-.19A15.14,15.14,0,0,0,251.54,166.07Z"/><path class="cls-1" d="M250.36,166.3c.39-.09.78-.17,1.18-.23l-1.81.11C249.85,166.38,250.14,166.35,250.36,166.3Z"/><path class="cls-1" d="M254.9,166l4.45-.21A38.88,38.88,0,0,0,254.9,166Z"/><path class="cls-1" d="M260.26,165.57l6.7.53A34.23,34.23,0,0,0,260.26,165.57Z"/><path class="cls-1" d="M234.28,159.81l2.62,7.56a17.71,17.71,0,0,0-2.49-7.56c0-.05-.07-.11-.13-.1S234.23,159.83,234.28,159.81Z"/><path class="cls-1" d="M234.07,159.21l-1.13-1.42c.22.33.43.68.62,1S233.84,159.26,234.07,159.21Z"/><path class="cls-1" d="M232.94,157.79a15.54,15.54,0,0,0-1.82-2.31Z"/><path class="cls-1" d="M227.92,151.81l2.81,3.45A40.28,40.28,0,0,0,227.92,151.81Z"/><path class="cls-1" d="M222.6,146.35l4.88,4.62A33.87,33.87,0,0,0,222.6,146.35Z"/><path class="cls-1" d="M254.11,186.25c0,1,.77.56,1.31.33a49.85,49.85,0,0,0,5.08-3,21.9,21.9,0,0,0,3-2,10.93,10.93,0,0,0,3.14-4.33c-.67-.59-1.71-.07-2.45.45a76.46,76.46,0,0,0-8.52,6.69C255.31,184.78,254.08,185.66,254.11,186.25Z"/><path class="cls-1" d="M271.49,177.58a1,1,0,0,1,.71.26,2.2,2.2,0,0,1,.27.47,1,1,0,0,0,1,.48,1,1,0,0,0,.82-.79,1.35,1.35,0,0,0-.74-1.37,3.46,3.46,0,0,0-1.62-.35c-.86,0-5.13-.3-5.13,1.13C266.85,178.29,270.63,177.49,271.49,177.58Z"/><path class="cls-1" d="M257.8,241.81a3.48,3.48,0,0,0-.93-1.13,27.49,27.49,0,0,0-3-2.45q.07-6.81.67-13.61a5.8,5.8,0,0,0-.14-2.49,2,2,0,0,0-1.21-1.27,1,1,0,0,0-.2-1.11,2.66,2.66,0,0,0-1.15-.61c-2.7-.92-5.6-2.34-8.41-2.81a5,5,0,0,0-1-.06q3.29-7.23,6.55-14.46s-.19-.23-.58-.64a4.44,4.44,0,0,0,1-.63c1-.8,2-2.15,1.77-3.42s-1.67-1.85-2.89-2.15c-2.32-.58-1.83-.55-2.79-1.15.25-.13.48-.28.71-.42l4.88-3c1.38-.87,2.86-1.84,3.39-3.38-.57-.54-1.5-.16-2.18.23q-3.45,2-6.87,4c-.32.2-1.56.77-2.41,1.29-1.9-.85-2.12-.81-3.1-3.84a2.81,2.81,0,0,0-.11-.44s-.06-.08-.11-.17a9.55,9.55,0,0,1,.24-4.67,1,1,0,0,1,.09-.22,2.22,2.22,0,0,0,2.56.09,4.25,4.25,0,0,0,1.61-2.91c.2-1.17.07-3.36-1.47-3.32a12.64,12.64,0,0,1,.58-5.45,4.73,4.73,0,0,0,.41-1.78c-.09-1.6-1.86-2.84-3.43-3.78l-.09,0c-1.75-.54-3.85-1-5.1,0a4.73,4.73,0,0,0-1.05,1.5,12.83,12.83,0,0,1-3.66,4.08c-1-1.2-2.73.18-3.46,1.12a4.24,4.24,0,0,0-1.1,3.14,2.24,2.24,0,0,0,1.8,1.85,2.14,2.14,0,0,1-.1.22,9.57,9.57,0,0,1-3.31,3.29c-.1,0-.21.06-.2,0s-.37.2-.4.21c-2.5,1.11-2.94,1.13-4.21.58.18-.64-.62-3.12-.72-3.66q-.75-3.92-1.59-7.82c-.16-.77-.5-1.7-1.28-1.77-.79,1.42-.53,3.17-.25,4.78.34,1.89.67,3.77,1,5.66a5.27,5.27,0,0,0,.52,1.76l.07.11c-2.47-.94-1.27,0-3.73-1.64-1-.71-2.34-1.46-3.54-.71s-1.45,2.29-1.36,3.6a5,5,0,0,0,.25,1.24c-.58,0-.88,0-.88,0q-2.91,6.65-5.83,13.3c-2.17-1.58-4.92-2.71-7.24-4a2.67,2.67,0,0,0-1.23-.45,1,1,0,0,0-.95.6,2,2,0,0,0-1.76,0,5.72,5.72,0,0,0-1.94,1.56q-4.65,5-9.67,9.6a27.79,27.79,0,0,0-3.85-.61,3.42,3.42,0,0,0-1.46.07,1.26,1.26,0,0,0-.9,1.06.58.58,0,0,0,.22.51.84.84,0,0,0,.41.11c1.58.13,3.18.09,4.75.33a3.89,3.89,0,0,0,1.13.06c1.11-.21.93-.78.42-1.17a1.63,1.63,0,0,0,.58-.08,3.88,3.88,0,0,0,1.18-.79l7.2-6.26c1.12-1,2.86-2,3.71-3.23a1.11,1.11,0,0,0,.24-.65c1.86,2.21,4.51,3.62,7.08,5,.25.13.65.4,1.11.66l-1,2.34a46.73,46.73,0,0,0-2.09,5.33,48.44,48.44,0,0,0-1.41,7.58l-1,7.61a.62.62,0,0,0-.27-.09c-.72-.12-1.28.56-1.85,1a6.52,6.52,0,0,1-1.13.68,75.61,75.61,0,0,0-8.68,5.33,7.87,7.87,0,0,0-1.46,1.23,1.65,1.65,0,0,0-.35.56,2.26,2.26,0,0,0,.49,1.85.73.73,0,0,0,1.09.44,25.17,25.17,0,0,0,3.35-2.21,19.31,19.31,0,0,1,2.4-1.22c1.61-.63,3.18-1.44,4.76-2.16.25-.11.61-.23,1-.36l-.4,3.1c-.47,3.61-.89,7.49.84,10.68.24.44.47,1,.7,1.52-.19.34-.38.7-.55,1.05a10.77,10.77,0,0,0-.85,2.47,11.27,11.27,0,0,0-.06,3.07,10.87,10.87,0,0,0,1.28,4.58,8.54,8.54,0,0,0,9.12,4.06,10.93,10.93,0,0,0,4.26-2.11,11.2,11.2,0,0,0,2.24-2.11,9.89,9.89,0,0,0,1.26-2.27c.16-.37.29-.74.42-1.12a16.65,16.65,0,0,1,1.6-.49c3.53-.85,6.13-3.76,8.49-6.52l1.39-1.63c.14.33.27.63.34.86.53,1.65,1,3.36,1.59,5a19.13,19.13,0,0,1,.69,2.6,23.66,23.66,0,0,0,.61,4,.89.89,0,0,0,.25.43,1,1,0,0,0,.8.09,2.3,2.3,0,0,0,1.71-.87,2.06,2.06,0,0,0,.18-.63,8.23,8.23,0,0,0-.06-1.92,75.66,75.66,0,0,0-1.85-10,7.17,7.17,0,0,1-.25-1.29c-.05-.73.08-1.61-.49-2.06l-.13-.09q2.79-3.25,5.57-6.5a47.81,47.81,0,0,0,4.7-6.12,46.13,46.13,0,0,0,2.56-5.12l.72-1.57a11.22,11.22,0,0,0,2.6,1c2.73,1,5.55,2,8.43,1.93a1.13,1.13,0,0,0-.32.62c-.34,1.44.06,3.43.08,4.91.06,3.18.11,6.37.17,9.55a3.69,3.69,0,0,0,.2,1.4,1.58,1.58,0,0,0,.33.48c-.64-.12-1.18.13-.59,1.1a3.57,3.57,0,0,0,.8.8c1.23,1,2.27,2.21,3.42,3.3a.85.85,0,0,0,.35.24.64.64,0,0,0,.54-.18A1.28,1.28,0,0,0,257.8,241.81Z"/><path class="cls-1" d="M223.94,277.47a2.71,2.71,0,0,0,.64-1.29A84.28,84.28,0,0,1,230,262c.85-1.73,1.78-3.61,1.13-5.62-.16-.5-1-2.16-1.85-2.13-.62,0-.67,2.11-.79,2.66a52.34,52.34,0,0,1-1.85,6.3c-1.48,4.14-3.29,8.15-4.73,12.3-.23.69-.34,1.65.45,2.1A1.38,1.38,0,0,0,223.94,277.47Z"/><path class="cls-1" d="M231.06,285.38a86.27,86.27,0,0,0-6.34-6.5c-1.53-1.36-3.41-.84-1.91.91l2.4,2.78.34-.67a15,15,0,0,0,2.44,4.27l.42-.66a9.15,9.15,0,0,1,2.24,2.14,1.61,1.61,0,0,0,.55.55.81.81,0,0,0,1-.24,1.18,1.18,0,0,0,0-1A6,6,0,0,0,231.06,285.38Z"/><path class="cls-1" d="M214.28,162.05a48.21,48.21,0,0,0,1.19,5.76c.19.55.36,1.37,1.12.75.46-.37.28-1.88.3-2.42a76.69,76.69,0,0,0-.73-10.81c-.11-.89-.42-2-1.31-2.12a11,11,0,0,0-1.11,5.23A21,21,0,0,0,214.28,162.05Z"/><path class="cls-1" d="M209.15,149.15a1,1,0,0,0,1,.45,2.47,2.47,0,0,1,.54-.11,1.07,1.07,0,0,1,.67.35c.64.58,2.57,3.93,3.23,3.35,1.07-1-2-3.95-2.59-4.57a3.58,3.58,0,0,0-1.34-1,1.38,1.38,0,0,0-1.52.38A1,1,0,0,0,209.15,149.15Z"/><path class="cls-1" d="M182,232.31c-.53-.64-2.34-.16-2.82.05-1.92.86-2.7,2.81-3.42,4.6a84,84,0,0,1-6.86,13.5,2.67,2.67,0,0,0-.54,1.34,1.4,1.4,0,0,0,.91,1.28c.87.29,1.51-.44,1.86-1.07,2.13-3.85,3.89-7.88,6-11.74a51.88,51.88,0,0,1,3.44-5.6C180.91,234.22,182.43,232.79,182,232.31Z"/><path class="cls-1" d="M166.82,252.16a86.27,86.27,0,0,0-9.07-.36,6,6,0,0,0-1.92.2,1.12,1.12,0,0,0-.77.67.8.8,0,0,0,.5.92,1.67,1.67,0,0,0,.77,0,9,9,0,0,1,3.09.24l-.2.75a15.33,15.33,0,0,0,4.8-1l-.27.7,3.68-.08C169.73,254.14,168.86,252.39,166.82,252.16Z"/><path class="cls-1" d="M204.68,68.93a25,25,0,0,0,.61,5.67,14.14,14.14,0,0,0,1.85,4.58,9.15,9.15,0,0,0,3.17,3,9,9,0,0,0,4.5,1.1,14.12,14.12,0,0,0,9.3-3.41l.91.68-1.67,4.24a15.3,15.3,0,0,1-4.53,2.3,22.85,22.85,0,0,1-7,.87,23.86,23.86,0,0,1-7-1A15.07,15.07,0,0,1,199,83.6a16.46,16.46,0,0,1-4-5.94,22.57,22.57,0,0,1-1.48-8.58,24.75,24.75,0,0,1,1.33-8.54,16.9,16.9,0,0,1,3.66-6A15.08,15.08,0,0,1,204,50.86a19.81,19.81,0,0,1,7-1.2q7.49,0,11.45,4.38t4,12.4V68a3.51,3.51,0,0,1-.07.9Zm11.64-3.4a29.34,29.34,0,0,0-1.39-9.07c-.84-2.27-2.23-3.4-4.2-3.4a3.83,3.83,0,0,0-2.8,1.13,8.29,8.29,0,0,0-1.81,2.91,18.64,18.64,0,0,0-1,4,37.29,37.29,0,0,0-.42,4.42Z"/><path class="cls-1" d="M38.58,56.31a16.1,16.1,0,0,1,5-4.92A12.17,12.17,0,0,1,50,49.66q5.67,0,8.73,3.28t3.06,10.63c0,2.57-.05,4.83-.15,6.8s-.15,3.93-.15,5.9q0,2.42.12,5.25c.07,1.89.16,3.72.26,5.48a17.1,17.1,0,0,0-2.49-.15H53a17.15,17.15,0,0,0-2.5.15,90.1,90.1,0,0,0,.68-9.26q.15-5.33.15-12.21,0-4.76-1.62-7a5.34,5.34,0,0,0-4.58-2.23,5.29,5.29,0,0,0-5,2.95,17.46,17.46,0,0,0-1.58,8.16v3c0,3.08,0,6,.11,8.7s.24,5.34.49,7.86a16.65,16.65,0,0,0-2.46-.15H30.34a18.14,18.14,0,0,0-2.5.15c.25-2.52.42-5.14.49-7.86s.12-5.62.12-8.7v-3q0-4.61-.12-8.66c-.07-2.69-.24-5.4-.49-8.12.91.1,1.8.19,2.69.26s1.77.12,2.68.12,1.8,0,2.68-.12,1.83-.16,2.84-.26l-.3,5.67Z"/><path class="cls-1" d="M68.76,55A24,24,0,0,1,75.6,51a20.83,20.83,0,0,1,7.3-1.36,21,21,0,0,1,5.55.68,11.94,11.94,0,0,1,4.39,2.15,9.8,9.8,0,0,1,2.87,3.82,14.16,14.16,0,0,1,1,5.67q0,4.83-.11,9c-.08,2.74-.11,5.48-.11,8.2A11.65,11.65,0,0,0,96.77,82a3.38,3.38,0,0,0,.79,1.55,2.5,2.5,0,0,0,1.4.68,11.94,11.94,0,0,0,2,.15v1.82c-1.47.6-2.7,1.06-3.71,1.36A11.35,11.35,0,0,1,94,88a7.15,7.15,0,0,1-4.54-1.36,8.42,8.42,0,0,1-2.64-3.93,14.37,14.37,0,0,1-4,3.86A10.79,10.79,0,0,1,77,88a14.28,14.28,0,0,1-4.91-.75,8.78,8.78,0,0,1-3.37-2.16A8.58,8.58,0,0,1,66.8,81.9,11.54,11.54,0,0,1,67,74a8.74,8.74,0,0,1,2.27-3.1,13.22,13.22,0,0,1,3.52-2.16,28.09,28.09,0,0,1,4.61-1.47c2.12-.5,3.79-1,5-1.32a12.34,12.34,0,0,0,2.76-1.14,2.78,2.78,0,0,0,1.17-1.24,4.8,4.8,0,0,0,.26-1.67,6.34,6.34,0,0,0-1.93-4.65,7.21,7.21,0,0,0-5.33-1.92,10.75,10.75,0,0,0-2.64.34,13.09,13.09,0,0,0-2.61.94,15.92,15.92,0,0,0-2.27,1.32,5.84,5.84,0,0,0-1.55,1.55h-.53ZM86.68,75.51c0-2.17,0-3.82,0-5s0-2.13,0-3a17.14,17.14,0,0,1-3.36,1.48,15.23,15.23,0,0,0-3.25,1.43,7.15,7.15,0,0,0-2.42,2.38,8.34,8.34,0,0,0-1,4.39A6.68,6.68,0,0,0,78,81.52,3.79,3.79,0,0,0,81.08,83a5,5,0,0,0,4-1.89A8.66,8.66,0,0,0,86.68,75.51Z"/><path class="cls-1" d="M122.73,53.06A7.89,7.89,0,0,0,123,55l-6.66-.15c-.1,1.16-.18,2.49-.26,4s-.13,3.05-.15,4.61,0,3.08-.08,4.54,0,2.7,0,3.7c0,2.63.06,4.74.18,6.35a15.08,15.08,0,0,0,.65,3.71,3,3,0,0,0,1.28,1.74,4.44,4.44,0,0,0,2.12.45,8.45,8.45,0,0,0,2.12-.19,5.8,5.8,0,0,0,1.36-.57v3.1a20.32,20.32,0,0,1-3.78,1.21,19.25,19.25,0,0,1-4.46.53q-9.6,0-9.6-11.49c0-1.46,0-3.11.07-4.95s.11-3.73.19-5.67.14-3.85.19-5.74.07-3.64.07-5.26l-5.29.08a7.89,7.89,0,0,0,.23-1.89,10.52,10.52,0,0,0-.23-2l5.29.22c0-1.56,0-3-.07-4.38s-.13-3-.23-4.92c1.77-.7,3.5-1.44,5.22-2.23s3.42-1.59,5.14-2.45l.75.53c-.1.8-.18,1.75-.26,2.83s-.15,2.22-.23,3.4-.12,2.4-.15,3.63,0,2.41,0,3.52L123,51A10.52,10.52,0,0,0,122.73,53.06Z"/><path class="cls-1" d="M150.13,81.56a15.16,15.16,0,0,1-5,4.8A12.78,12.78,0,0,1,138.71,88Q133,88,130,84.81T126.92,74.3q0-3.85.15-6.8c.1-2,.15-3.93.15-5.9,0-1.61,0-3.36-.11-5.25s-.17-3.8-.27-5.71c.66.1,1.49.19,2.5.26s2.06.12,3.17.12,2.17,0,3.18-.12,1.84-.16,2.49-.26q-.52,4.08-.68,9.45t-.15,12.24q0,4.77,1.63,7a5.74,5.74,0,0,0,9.56-.72,17.4,17.4,0,0,0,1.59-8.17v-3q0-4.61-.12-8.66c-.07-2.69-.24-5.4-.49-8.12a33.85,33.85,0,0,0,5.67.38q1.74,0,3.18-.12c.95-.07,1.78-.16,2.49-.26-.25,2.72-.42,5.43-.49,8.12s-.11,5.59-.11,8.66v3c0,3.08,0,6,.11,8.7s.24,5.34.49,7.86a24.48,24.48,0,0,0-2.68-.15h-5.37c-.88,0-1.83.05-2.84.15l.31-5.44Z"/><path class="cls-1" d="M178,60a19,19,0,0,1,4.76-7.67,9.74,9.74,0,0,1,6.65-2.46,5.64,5.64,0,0,1,.65,0,3.28,3.28,0,0,0,.56,0,23.52,23.52,0,0,0-.34,2.42c-.07.85-.11,1.86-.11,3v3.7a10.38,10.38,0,0,0,.08,1.29l-.68.6a8.49,8.49,0,0,0-1.7-.75,7.18,7.18,0,0,0-2.16-.3,6.78,6.78,0,0,0-5.37,2.23,7.67,7.67,0,0,0-2,5.25v3q0,4.62.11,8.7T179,87a16.6,16.6,0,0,0-2.45-.15h-6.39a18.14,18.14,0,0,0-2.5.15q.39-3.78.49-7.86t.12-8.7v-3q0-4.61-.12-8.66t-.49-8.12c.86.1,1.73.19,2.61.26s1.75.12,2.61.12,1.73,0,2.61-.12,1.75-.16,2.61-.26l-.23,9.22Z"/><path class="cls-1" d="M47.5,118.45a7.88,7.88,0,0,0,.22,1.89l-6.65-.15c-.1,1.16-.19,2.49-.26,4s-.13,3-.15,4.61-.06,3.08-.08,4.54,0,2.7,0,3.7c0,2.63.06,4.74.19,6.35a15.65,15.65,0,0,0,.64,3.71,3,3,0,0,0,1.29,1.74,4.41,4.41,0,0,0,2.12.45,8.36,8.36,0,0,0,2.11-.19,5.84,5.84,0,0,0,1.36-.56v3.09a20.32,20.32,0,0,1-3.78,1.21,19.19,19.19,0,0,1-4.46.53q-9.6,0-9.6-11.49c0-1.46,0-3.11.08-4.95s.11-3.73.19-5.67.13-3.85.19-5.74.07-3.64.07-5.26l-5.29.08a7.89,7.89,0,0,0,.23-1.89,10.52,10.52,0,0,0-.23-2l5.29.22c0-1.56,0-3-.07-4.38s-.13-3-.23-4.91q2.64-1.07,5.22-2.23c1.71-.79,3.42-1.6,5.14-2.46l.75.53c-.1.8-.19,1.75-.26,2.83s-.15,2.22-.23,3.4-.13,2.4-.15,3.63,0,2.41,0,3.52l6.65-.15A10.45,10.45,0,0,0,47.5,118.45Z"/><path class="cls-1" d="M53.06,120.34a24,24,0,0,1,6.84-3.93,20.83,20.83,0,0,1,7.3-1.36,21.1,21.1,0,0,1,5.55.68,11.94,11.94,0,0,1,4.39,2.15A9.8,9.8,0,0,1,80,121.7a14.16,14.16,0,0,1,1,5.67q0,4.83-.11,9c-.08,2.74-.12,5.48-.12,8.2a11.57,11.57,0,0,0,.27,2.83,3.28,3.28,0,0,0,.79,1.55,2.47,2.47,0,0,0,1.4.68,11.9,11.9,0,0,0,2,.15v1.82c-1.46.6-2.69,1.06-3.7,1.36a11.35,11.35,0,0,1-3.25.45A7.13,7.13,0,0,1,73.77,152a8.25,8.25,0,0,1-2.64-3.93,14.37,14.37,0,0,1-4,3.86,10.79,10.79,0,0,1-5.78,1.43,14.24,14.24,0,0,1-4.91-.75,8.57,8.57,0,0,1-5.3-5.33,11.17,11.17,0,0,1-.6-3.59,10.67,10.67,0,0,1,.79-4.31,8.74,8.74,0,0,1,2.27-3.1,13.07,13.07,0,0,1,3.52-2.16,28.76,28.76,0,0,1,4.61-1.47c2.11-.5,3.79-.95,5-1.32a12,12,0,0,0,2.75-1.14A2.75,2.75,0,0,0,70.64,129a4.8,4.8,0,0,0,.26-1.67A6.34,6.34,0,0,0,69,122.64a7.21,7.21,0,0,0-5.33-1.92,10.69,10.69,0,0,0-2.64.34,13.09,13.09,0,0,0-2.61.94,16.92,16.92,0,0,0-2.27,1.32,5.69,5.69,0,0,0-1.55,1.55H54ZM71,140.9q0-3.26,0-5c0-1.14,0-2.13,0-3a17.41,17.41,0,0,1-3.36,1.48,15.23,15.23,0,0,0-3.25,1.43A7.06,7.06,0,0,0,62,138.25a8.34,8.34,0,0,0-1,4.39,6.74,6.74,0,0,0,1.17,4.27,3.82,3.82,0,0,0,3.14,1.47,5,5,0,0,0,4.05-1.89A8.66,8.66,0,0,0,71,140.9Z"/><path class="cls-1" d="M89.6,107.94q-.15-6.19-.45-12.55c.65.1,1.49.19,2.49.27s2.07.11,3.18.11,2.17,0,3.17-.11,1.84-.17,2.5-.27q-.15,3.18-.27,6.43c-.07,2.16-.14,4.61-.18,7.33s-.09,5.83-.12,9.34,0,7.67,0,12.51c0,.7,0,1.16,0,1.36a.31.31,0,0,0,.34.3c.2,0,.69-.39,1.48-1.17s1.78-1.9,3-3.37,2.67-3.21,4.31-5.25,3.44-4.32,5.4-6.84c.61.1,1.2.19,1.78.26a13,13,0,0,0,1.78.12,15,15,0,0,0,1.81-.12l2.42-.26c-.65.75-1.62,1.79-2.91,3.1l-4,4q-2,2.08-3.85,4c-1.21,1.26-2.1,2.19-2.65,2.8.2.3.64,1,1.32,2.11s1.5,2.44,2.46,4,2,3.18,3,4.92,2.06,3.4,3,5,1.75,3,2.46,4.15,1.16,2,1.36,2.31q-1.59-.15-3-.15H113.6a27.26,27.26,0,0,0-2.83.15,11,11,0,0,1-1.25-1.89l-2-3.44q-1.09-1.92-2.27-4c-.78-1.41-1.53-2.71-2.23-3.9s-1.34-2.15-1.89-2.91-.93-1.13-1.13-1.13-.34.15-.42.45a18,18,0,0,0-.11,2.8v4.23c0,.66,0,1.47,0,2.42s0,1.93.08,2.91.08,1.91.15,2.76a8.48,8.48,0,0,0,.27,1.74,25,25,0,0,0-2.73-.15H91.87a24.79,24.79,0,0,0-2.72.15q.3-6.12.45-12.32t.15-13.61v-4.91Q89.75,114.14,89.6,107.94Z"/><path class="cls-1" d="M133.56,134.32a25,25,0,0,0,.61,5.67,14.14,14.14,0,0,0,1.85,4.58,9.15,9.15,0,0,0,3.17,3,9,9,0,0,0,4.5,1.1,14.12,14.12,0,0,0,9.3-3.41l.91.68-1.67,4.24a15.3,15.3,0,0,1-4.53,2.3,22.85,22.85,0,0,1-7,.87,23.86,23.86,0,0,1-7-1,15,15,0,0,1-5.86-3.36,16.46,16.46,0,0,1-4-5.94,22.57,22.57,0,0,1-1.48-8.58,24.75,24.75,0,0,1,1.33-8.54,16.9,16.9,0,0,1,3.66-6.05,14.93,14.93,0,0,1,5.56-3.62,19.59,19.59,0,0,1,7-1.21q7.49,0,11.45,4.38t4,12.4v1.59a3.51,3.51,0,0,1-.07.9Zm11.64-3.4a29,29,0,0,0-1.4-9.07c-.83-2.27-2.22-3.4-4.19-3.4a3.83,3.83,0,0,0-2.8,1.13,8.29,8.29,0,0,0-1.81,2.91,18.64,18.64,0,0,0-1,4,37.29,37.29,0,0,0-.42,4.42Z"/><path class="cls-1" d="M26.33,193.06a23.27,23.27,0,0,1,1.55-8.84A18.72,18.72,0,0,1,32,177.9a16.78,16.78,0,0,1,5.93-3.78,19.81,19.81,0,0,1,6.92-1.24q8.85,0,13.68,5t4.84,13.53A23.87,23.87,0,0,1,62,199.71,18.31,18.31,0,0,1,58.19,206a15.49,15.49,0,0,1-5.86,3.89,20.9,20.9,0,0,1-7.48,1.28,25.21,25.21,0,0,1-6.69-.9,16.2,16.2,0,0,1-5.93-3.06A15.62,15.62,0,0,1,28,201.6,20,20,0,0,1,26.33,193.06Zm25.85-2.8q0-6.64-1.66-10.31A5.67,5.67,0,0,0,45,176.28c-2.32,0-4.14,1.36-5.48,4.08s-2,7-2,12.78A41.65,41.65,0,0,0,37.9,199a18.1,18.1,0,0,0,1.24,4.73,8.08,8.08,0,0,0,2.27,3.13A5.37,5.37,0,0,0,44.93,208Q52.18,208,52.18,190.26Z"/><path class="cls-1" d="M89,187.09c1.48-4.39,3-8.79,4.42-13.23.55.1,1.08.19,1.59.26a9.56,9.56,0,0,0,3,0l1.66-.26c-.8,2-1.79,4.25-3,6.84s-2.38,5.44-3.66,8.54-2.6,6.43-3.93,10-2.59,7.22-3.74,11a14.67,14.67,0,0,0-2-.15H79.29a14.64,14.64,0,0,0-2,.15q-1.52-4.31-3.36-9.52t-3.67-10.25L66.82,181c-1.06-2.92-1.94-5.32-2.65-7.18,1.06.1,2.08.19,3.06.26s2,.12,2.92.12,1.9,0,2.83-.12,1.88-.16,2.83-.26c1.37,4.44,2.74,8.84,4.12,13.23s2.81,8.79,4.28,13.23h.15Q86.78,193.66,89,187.09Z"/><path class="cls-1" d="M111.36,192.15a25,25,0,0,0,.61,5.67,14.14,14.14,0,0,0,1.85,4.58,9.15,9.15,0,0,0,3.17,3,9,9,0,0,0,4.5,1.1,14.16,14.16,0,0,0,9.3-3.4l.91.68L130,208a15.32,15.32,0,0,1-4.53,2.31,23.25,23.25,0,0,1-7,.86,23.86,23.86,0,0,1-7-1,15,15,0,0,1-5.86-3.36,16.38,16.38,0,0,1-4-5.93,22.45,22.45,0,0,1-1.48-8.58,25,25,0,0,1,1.32-8.55,17.06,17.06,0,0,1,3.67-6,14.93,14.93,0,0,1,5.56-3.62,19.59,19.59,0,0,1,7-1.21q7.49,0,11.45,4.38t4,12.4v1.59a3.51,3.51,0,0,1-.07.9Zm11.64-3.4a29,29,0,0,0-1.4-9.07q-1.25-3.41-4.19-3.4a3.83,3.83,0,0,0-2.8,1.13,8.15,8.15,0,0,0-1.81,2.91,18.64,18.64,0,0,0-1,4,37.29,37.29,0,0,0-.42,4.42Z"/><path class="cls-1" d="M148.56,183.23a19,19,0,0,1,4.76-7.67A9.77,9.77,0,0,1,160,173.1a5.6,5.6,0,0,1,.64,0,3.32,3.32,0,0,0,.57,0,21.32,21.32,0,0,0-.35,2.42c-.07.86-.11,1.86-.11,3v3.71a10.34,10.34,0,0,0,.08,1.28l-.68.61a7.76,7.76,0,0,0-1.7-.76,7.14,7.14,0,0,0-2.16-.3,6.78,6.78,0,0,0-5.37,2.23,7.69,7.69,0,0,0-2,5.25v3q0,4.61.11,8.69t.49,7.86a16.6,16.6,0,0,0-2.45-.15H140.7a18.14,18.14,0,0,0-2.5.15c.26-2.52.42-5.14.5-7.86s.11-5.62.11-8.69v-3c0-3.07,0-6-.11-8.65s-.24-5.41-.5-8.13c.86.1,1.73.19,2.61.26s1.75.12,2.61.12,1.73,0,2.61-.12,1.75-.16,2.61-.26l-.23,9.22Z"/><path class="cls-1" d="M34.38,13.64H31.21V34.33H28.83V13.64H25.65V11.71h8.73Z"/><path class="cls-1" d="M50.51,11.71V34.33H48.1V24H44.47V34.33H42.09V11.71h2.38V22.06H48.1V11.71Z"/><path class="cls-1" d="M66.05,32.4v1.93H58.79V11.71H65.9v1.93H61.17v8h4.17v1.93H61.17V32.4Z"/></svg>