<svg id="Layer_1" data-name="Layer 1" xmlns="http://www.w3.org/2000/svg" viewBox="0 0 300 300"><defs><style>.cls-1{fill:#ffff3f;}</style></defs><path class="cls-1" d="M252.14,166.85s-.11,0-.17,0a18.3,18.3,0,0,0-7.5,3.31l7.59-3.21C252.08,167,252.17,166.89,252.14,166.85Z"/><path class="cls-1" d="M254.53,166.54l3-.19A16.91,16.91,0,0,0,254.53,166.54Z"/><path class="cls-1" d="M253.32,166.78c.4-.09.8-.17,1.21-.24l-1.86.12C252.78,166.87,253.09,166.84,253.32,166.78Z"/><path class="cls-1" d="M258,166.49l4.57-.22A43.69,43.69,0,0,0,258,166.49Z"/><path class="cls-1" d="M263.5,166l6.91.55A35.54,35.54,0,0,0,263.5,166Z"/><path class="cls-1" d="M236.76,160.1l2.7,7.79a18.15,18.15,0,0,0-2.57-7.79s-.07-.11-.13-.1S236.71,160.12,236.76,160.1Z"/><path class="cls-1" d="M236.54,159.48,235.39,158c.22.35.43.7.63,1.06C236.13,159.29,236.31,159.53,236.54,159.48Z"/><path class="cls-1" d="M235.39,158a15.92,15.92,0,0,0-1.88-2.37Z"/><path class="cls-1" d="M230.21,151.87l2.9,3.54A41,41,0,0,0,230.21,151.87Z"/><path class="cls-1" d="M224.74,146.24l5,4.77A35.39,35.39,0,0,0,224.74,146.24Z"/><path class="cls-1" d="M257.17,187.32c.06,1,.79.57,1.35.34a51,51,0,0,0,5.23-3.06,21.74,21.74,0,0,0,3.13-2.07,11.29,11.29,0,0,0,3.24-4.45c-.7-.61-1.77-.08-2.52.46a77.83,77.83,0,0,0-8.78,6.89C258.41,185.81,257.14,186.71,257.17,187.32Z"/><path class="cls-1" d="M275.07,178.39a1.17,1.17,0,0,1,.73.27,3,3,0,0,1,.28.49,1,1,0,0,0,1.06.49,1.07,1.07,0,0,0,.85-.81,1.4,1.4,0,0,0-.76-1.42,3.66,3.66,0,0,0-1.67-.35c-.88,0-5.29-.31-5.28,1.16C270.29,179.12,274.18,178.3,275.07,178.39Z"/><path class="cls-1" d="M261,244.52a3.58,3.58,0,0,0-1-1.17,30.15,30.15,0,0,0-3.12-2.52q.08-7,.69-14a6.17,6.17,0,0,0-.14-2.57,2.13,2.13,0,0,0-1.26-1.31,1,1,0,0,0-.2-1.13,2.83,2.83,0,0,0-1.18-.64c-2.78-.94-5.77-2.4-8.66-2.89a5.34,5.34,0,0,0-1-.06q3.38-7.44,6.74-14.88s-.2-.24-.59-.66a5.19,5.19,0,0,0,1.07-.65c1.07-.82,2-2.21,1.82-3.52s-1.72-1.9-3-2.22c-2.39-.59-1.88-.56-2.87-1.18.25-.13.5-.28.74-.43l5-3.13c1.42-.89,2.94-1.9,3.49-3.48-.6-.55-1.55-.17-2.25.24-2.37,1.36-4.73,2.76-7.07,4.17-.34.2-1.61.79-2.48,1.32-2-.87-2.18-.83-3.2-4a3,3,0,0,0-.11-.45s-.06-.08-.11-.18a9.71,9.71,0,0,1,.25-4.8.92.92,0,0,1,.09-.23,2.3,2.3,0,0,0,2.64.1,4.44,4.44,0,0,0,1.65-3c.21-1.19.08-3.46-1.51-3.41a12.9,12.9,0,0,1,.6-5.61,4.83,4.83,0,0,0,.41-1.83c-.09-1.65-1.9-2.92-3.52-3.9l-.09,0c-1.81-.55-4-1.05-5.25,0a4.79,4.79,0,0,0-1.09,1.54,13.12,13.12,0,0,1-3.77,4.2c-1-1.23-2.81.19-3.56,1.15a4.42,4.42,0,0,0-1.13,3.23,2.3,2.3,0,0,0,1.86,1.9,1.63,1.63,0,0,1-.11.23,10,10,0,0,1-3.41,3.4c-.1,0-.21.05-.2,0a3.47,3.47,0,0,0-.42.22c-2.57,1.14-3,1.16-4.33.6.19-.66-.64-3.21-.74-3.77q-.78-4-1.63-8.05c-.17-.79-.52-1.75-1.33-1.83-.81,1.47-.54,3.27-.25,4.93.35,1.94.69,3.88,1,5.82a5.28,5.28,0,0,0,.54,1.81l.07.11c-2.55-1-1.32,0-3.84-1.68-1.08-.73-2.42-1.51-3.65-.73s-1.49,2.36-1.39,3.71a4.92,4.92,0,0,0,.25,1.28c-.59-.05-.9-.05-.9-.05l-6,13.7c-2.24-1.63-5.08-2.8-7.46-4.14a2.83,2.83,0,0,0-1.27-.46,1,1,0,0,0-1,.62,2.09,2.09,0,0,0-1.81-.06,6,6,0,0,0-2,1.61q-4.78,5.13-10,9.89a27.9,27.9,0,0,0-4-.63,3.61,3.61,0,0,0-1.5.07,1.29,1.29,0,0,0-.93,1.09.6.6,0,0,0,.23.53.88.88,0,0,0,.42.11c1.63.13,3.27.09,4.88.33a3.55,3.55,0,0,0,1.17.07c1.14-.21,1-.81.44-1.21a1.68,1.68,0,0,0,.59-.08,3.9,3.9,0,0,0,1.21-.81l7.42-6.45c1.15-1,2.94-2.07,3.81-3.32a1.06,1.06,0,0,0,.25-.67c1.92,2.27,4.64,3.73,7.29,5.12.26.13.67.41,1.14.67l-1,2.41a49.56,49.56,0,0,0-2.15,5.49,50.21,50.21,0,0,0-1.45,7.81l-1,7.83a.85.85,0,0,0-.28-.1c-.73-.12-1.31.59-1.9,1.05a7.7,7.7,0,0,1-1.17.7,77.13,77.13,0,0,0-8.93,5.48,8,8,0,0,0-1.51,1.27,1.87,1.87,0,0,0-.35.57,2.29,2.29,0,0,0,.51,1.91c.15.24.33.51.62.55a.89.89,0,0,0,.5-.1,26.29,26.29,0,0,0,3.45-2.27,20.35,20.35,0,0,1,2.46-1.26c1.66-.64,3.28-1.48,4.9-2.22.26-.11.63-.23,1-.37l-.42,3.19c-.48,3.71-.92,7.71.87,11,.24.45.48,1,.72,1.56-.2.35-.39.71-.57,1.09a10.24,10.24,0,0,0-.87,2.53,13.73,13.73,0,0,0,1.25,7.88,9.56,9.56,0,0,0,4,3.6,9.44,9.44,0,0,0,5.37.57,11.11,11.11,0,0,0,4.38-2.16,11.62,11.62,0,0,0,2.31-2.17,10.58,10.58,0,0,0,1.3-2.35c.16-.38.3-.76.43-1.15.58-.19,1.14-.38,1.64-.5,3.64-.88,6.32-3.88,8.75-6.72.48-.55.95-1.11,1.43-1.67.14.34.28.65.35.88.54,1.7,1,3.46,1.63,5.13a20.63,20.63,0,0,1,.72,2.67,25.39,25.39,0,0,0,.62,4.09.87.87,0,0,0,.26.44,1,1,0,0,0,.82.09,2.34,2.34,0,0,0,1.76-.9,1.81,1.81,0,0,0,.19-.65,8.68,8.68,0,0,0-.06-2,78.58,78.58,0,0,0-1.91-10.31,7.28,7.28,0,0,1-.26-1.33c-.05-.75.09-1.65-.5-2.12l-.13-.09,5.73-6.69a47.41,47.41,0,0,0,4.83-6.3,48.07,48.07,0,0,0,2.65-5.27l.73-1.62a10.92,10.92,0,0,0,2.69,1.06c2.8,1,5.7,2.09,8.67,2a1.16,1.16,0,0,0-.33.64c-.35,1.48.06,3.53.09,5.06.05,3.27.11,6.55.16,9.82a3.73,3.73,0,0,0,.22,1.45,1.46,1.46,0,0,0,.33.49c-.65-.12-1.21.14-.6,1.13a3.59,3.59,0,0,0,.82.83c1.26,1,2.33,2.28,3.52,3.4a1,1,0,0,0,.36.24.6.6,0,0,0,.55-.19A1.27,1.27,0,0,0,261,244.52Z"/><path class="cls-1" d="M226.11,281.22a2.66,2.66,0,0,0,.66-1.33,86.25,86.25,0,0,1,5.6-14.55c.88-1.78,1.83-3.72,1.17-5.78-.17-.52-1-2.23-1.91-2.19-.64,0-.68,2.17-.81,2.73a51.94,51.94,0,0,1-1.91,6.49c-1.51,4.26-3.38,8.38-4.86,12.66-.24.71-.36,1.69.46,2.16A1.41,1.41,0,0,0,226.11,281.22Z"/><path class="cls-1" d="M233.44,289.36a89.3,89.3,0,0,0-6.52-6.69c-1.58-1.4-3.51-.86-2,.94l2.48,2.86.34-.69a15.36,15.36,0,0,0,2.52,4.4l.43-.68a9.54,9.54,0,0,1,2.31,2.21,1.58,1.58,0,0,0,.56.56.84.84,0,0,0,1-.24,1.18,1.18,0,0,0,0-1A6,6,0,0,0,233.44,289.36Z"/><path class="cls-1" d="M216.17,162.41a49.51,49.51,0,0,0,1.23,5.93c.2.57.36,1.41,1.15.77.48-.38.29-1.93.31-2.49a78.25,78.25,0,0,0-.76-11.13c-.1-.92-.42-2.07-1.34-2.18a11.26,11.26,0,0,0-1.15,5.38A23.36,23.36,0,0,0,216.17,162.41Z"/><path class="cls-1" d="M210.9,149.13a1,1,0,0,0,1.07.46,3.89,3.89,0,0,1,.55-.12,1.18,1.18,0,0,1,.7.37c.65.6,2.65,4,3.32,3.44,1.1-1-2-4.06-2.67-4.7a3.55,3.55,0,0,0-1.37-1,1.42,1.42,0,0,0-1.57.38A1.06,1.06,0,0,0,210.9,149.13Z"/><path class="cls-1" d="M183,234.73c-.54-.65-2.41-.16-2.9.06-2,.88-2.78,2.89-3.52,4.73a86.1,86.1,0,0,1-7.07,13.9,2.78,2.78,0,0,0-.55,1.38,1.45,1.45,0,0,0,.94,1.32c.89.29,1.55-.45,1.91-1.11,2.19-4,4-8.1,6.16-12.08a53.27,53.27,0,0,1,3.54-5.76C181.82,236.7,183.38,235.23,183,234.73Z"/><path class="cls-1" d="M167.32,255.17a88.81,88.81,0,0,0-9.34-.37,6.12,6.12,0,0,0-2,.21,1.18,1.18,0,0,0-.8.68.84.84,0,0,0,.52.95,1.81,1.81,0,0,0,.8,0,9.31,9.31,0,0,1,3.18.24l-.21.77a15.72,15.72,0,0,0,4.95-1.07l-.28.72,3.78-.08C170.31,257.21,169.41,255.41,167.32,255.17Z"/><path class="cls-1" d="M206.29,66.55a26.48,26.48,0,0,0,.62,5.84,14.57,14.57,0,0,0,1.91,4.7,9.37,9.37,0,0,0,3.27,3.12,9.23,9.23,0,0,0,4.63,1.13,14.51,14.51,0,0,0,9.57-3.51l.94.7-1.72,4.36a15.65,15.65,0,0,1-4.67,2.38,23.7,23.7,0,0,1-7.16.89,24.5,24.5,0,0,1-7.23-1,15.29,15.29,0,0,1-6-3.46,17,17,0,0,1-4.13-6.11,23.26,23.26,0,0,1-1.52-8.83,25.62,25.62,0,0,1,1.37-8.8,17.17,17.17,0,0,1,3.77-6.22A15.41,15.41,0,0,1,205.63,48a20.24,20.24,0,0,1,7.2-1.24q7.69,0,11.79,4.51T228.7,64v1.64a3.8,3.8,0,0,1-.07.93Zm12-3.5a30.51,30.51,0,0,0-1.44-9.34c-.86-2.34-2.3-3.5-4.32-3.5a3.94,3.94,0,0,0-2.88,1.16,8.48,8.48,0,0,0-1.87,3,19.61,19.61,0,0,0-1.05,4.13,39.3,39.3,0,0,0-.43,4.55Z"/><path class="cls-1" d="M35.3,53.55a16.53,16.53,0,0,1,5.09-5,12.44,12.44,0,0,1,6.66-1.79q5.84,0,9,3.38T59.19,61q0,4-.16,7c-.1,2-.15,4-.15,6.07,0,1.66,0,3.46.11,5.41s.17,3.82.28,5.64A16.66,16.66,0,0,0,56.7,85H50.16a16.57,16.57,0,0,0-2.57.16,89.41,89.41,0,0,0,.7-9.53q.16-5.49.16-12.57,0-4.9-1.67-7.2a5.5,5.5,0,0,0-4.71-2.3,5.45,5.45,0,0,0-5.14,3A17.87,17.87,0,0,0,35.3,65v3.12q0,4.74.11,9t.51,8.09A16.19,16.19,0,0,0,33.39,85H26.81a17.33,17.33,0,0,0-2.56.16c.26-2.59.42-5.29.5-8.09s.12-5.79.12-9V65q0-4.74-.12-8.91c-.08-2.77-.24-5.56-.5-8.36L27,48q1.36.12,2.76.12T32.53,48l2.92-.27-.31,5.83Z"/><path class="cls-1" d="M66.37,52.15a25,25,0,0,1,7-4,21.34,21.34,0,0,1,7.51-1.4,21.86,21.86,0,0,1,5.72.7,12.24,12.24,0,0,1,4.52,2.21,10.16,10.16,0,0,1,3,3.93,14.62,14.62,0,0,1,1,5.84c0,3.32,0,6.4-.11,9.22s-.12,5.64-.12,8.45A12.25,12.25,0,0,0,95.2,80a3.45,3.45,0,0,0,.82,1.6,2.58,2.58,0,0,0,1.44.7,12.5,12.5,0,0,0,2.06.16v1.86a38.39,38.39,0,0,1-3.81,1.4,11.3,11.3,0,0,1-3.35.47,7.4,7.4,0,0,1-4.67-1.4A8.58,8.58,0,0,1,85,80.71a14.61,14.61,0,0,1-4.16,4,11.07,11.07,0,0,1-6,1.48,14.52,14.52,0,0,1-5-.78,8.83,8.83,0,0,1-3.47-2.22,8.65,8.65,0,0,1-2-3.26,11.33,11.33,0,0,1-.63-3.7,11.13,11.13,0,0,1,.82-4.44,9.14,9.14,0,0,1,2.34-3.19,13.22,13.22,0,0,1,3.62-2.21,28.4,28.4,0,0,1,4.74-1.52q3.27-.78,5.18-1.36a12.48,12.48,0,0,0,2.84-1.17A2.79,2.79,0,0,0,84.46,61a4.5,4.5,0,0,0,.28-1.71,6.52,6.52,0,0,0-2-4.78,7.38,7.38,0,0,0-5.48-2,11.42,11.42,0,0,0-2.73.35,13.85,13.85,0,0,0-2.68,1,15.45,15.45,0,0,0-2.34,1.36,5.71,5.71,0,0,0-1.59,1.59h-.55ZM84.81,73.32c0-2.23,0-3.93,0-5.1s0-2.19,0-3.07a18.16,18.16,0,0,1-3.46,1.52,16.19,16.19,0,0,0-3.35,1.48,7.2,7.2,0,0,0-2.49,2.45,8.56,8.56,0,0,0-1,4.51,6.91,6.91,0,0,0,1.21,4.4A3.91,3.91,0,0,0,79.06,81a5.11,5.11,0,0,0,4.16-1.94A9,9,0,0,0,84.81,73.32Z"/><path class="cls-1" d="M121.93,50.21a8.24,8.24,0,0,0,.23,1.94L115.31,52c-.1,1.19-.19,2.57-.27,4.12s-.13,3.14-.16,4.75,0,3.16-.07,4.67,0,2.77,0,3.81q0,4.05.19,6.54a15.78,15.78,0,0,0,.66,3.81A3.14,3.14,0,0,0,117,81.49a4.51,4.51,0,0,0,2.18.47,8.7,8.7,0,0,0,2.17-.2,6,6,0,0,0,1.41-.58v3.19a21.91,21.91,0,0,1-3.9,1.25,20.24,20.24,0,0,1-4.59.54q-9.89,0-9.88-11.83c0-1.5,0-3.2.08-5.1s.11-3.83.19-5.83.14-4,.2-5.92.07-3.74.07-5.4l-5.44.07a8.24,8.24,0,0,0,.23-1.94,11.19,11.19,0,0,0-.23-2.1l5.44.23c0-1.61,0-3.11-.07-4.51s-.13-3.09-.24-5.06c1.82-.73,3.61-1.49,5.37-2.3s3.53-1.64,5.29-2.53l.78.55c-.1.83-.19,1.8-.27,2.92s-.15,2.28-.23,3.5-.13,2.46-.16,3.73,0,2.48,0,3.62l6.85-.15A11.19,11.19,0,0,0,121.93,50.21Z"/><path class="cls-1" d="M150.13,79.55a15.43,15.43,0,0,1-5.1,4.94,13.16,13.16,0,0,1-6.65,1.67q-5.83,0-9-3.27t-3.15-10.81q0-4,.15-7c.11-2,.16-4,.16-6.07,0-1.66,0-3.46-.12-5.41s-.17-3.9-.27-5.87c.67.1,1.53.19,2.57.27s2.13.12,3.27.12,2.23,0,3.27-.12,1.89-.17,2.56-.27q-.54,4.2-.7,9.72T137,70.05c0,3.27.55,5.67,1.67,7.2a5.5,5.5,0,0,0,4.71,2.3,5.44,5.44,0,0,0,5.13-3,17.86,17.86,0,0,0,1.64-8.4V65q0-4.74-.12-8.91c-.08-2.77-.24-5.56-.5-8.36a34.48,34.48,0,0,0,5.83.39q1.8,0,3.27-.12c1-.08,1.84-.17,2.57-.27q-.39,4.2-.51,8.36T160.56,65v3.12q0,4.74.11,9t.51,8.09a23.59,23.59,0,0,0-2.76-.16h-5.53a27.74,27.74,0,0,0-2.92.16l.31-5.6Z"/><path class="cls-1" d="M178.84,57.37a19.53,19.53,0,0,1,4.91-7.9,10,10,0,0,1,6.85-2.53,4.33,4.33,0,0,1,.66,0,5.11,5.11,0,0,0,.58,0,22.63,22.63,0,0,0-.35,2.49c-.08.88-.12,1.92-.12,3.11v3.81a11.19,11.19,0,0,0,.08,1.33l-.7.62A8.5,8.5,0,0,0,189,57.6a7.22,7.22,0,0,0-2.22-.31,7,7,0,0,0-5.52,2.29,8,8,0,0,0-2,5.41v3.12q0,4.74.12,9t.51,8.09a16.28,16.28,0,0,0-2.53-.16h-6.58a17.57,17.57,0,0,0-2.57.16q.39-3.89.51-8.09t.12-9V65q0-4.74-.12-8.91t-.51-8.36c.88.1,1.78.19,2.69.27s1.8.12,2.68.12,1.78,0,2.69-.12,1.8-.17,2.68-.27l-.23,9.49Z"/><path class="cls-1" d="M44.48,117.52a8.27,8.27,0,0,0,.23,2l-6.84-.16c-.11,1.2-.2,2.57-.28,4.13s-.13,3.14-.15,4.74-.06,3.17-.08,4.67,0,2.78,0,3.82q0,4,.19,6.53a15.8,15.8,0,0,0,.67,3.82,3.08,3.08,0,0,0,1.32,1.79,4.55,4.55,0,0,0,2.18.46,9,9,0,0,0,2.18-.19,6.6,6.6,0,0,0,1.4-.58v3.19a22.1,22.1,0,0,1-3.89,1.24,20.4,20.4,0,0,1-4.59.55q-9.88,0-9.89-11.83c0-1.51,0-3.21.08-5.1s.12-3.84.2-5.84.14-4,.19-5.91.08-3.75.08-5.41l-5.45.08a7.77,7.77,0,0,0,.23-2,10.49,10.49,0,0,0-.23-2.1l5.45.23c0-1.6,0-3.11-.08-4.51s-.13-3.08-.23-5.06c1.81-.72,3.6-1.49,5.37-2.29s3.52-1.65,5.29-2.53l.78.54c-.11.83-.2,1.81-.28,2.92s-.15,2.28-.23,3.5-.13,2.47-.16,3.74,0,2.48,0,3.62l6.84-.16A11.28,11.28,0,0,0,44.48,117.52Z"/><path class="cls-1" d="M50.21,119.47a24.9,24.9,0,0,1,7-4,21.57,21.57,0,0,1,7.51-1.4,21.92,21.92,0,0,1,5.72.7A12.29,12.29,0,0,1,75,116.94a10,10,0,0,1,3,3.93,14.59,14.59,0,0,1,1,5.84q0,5-.12,9.22t-.11,8.44a12.28,12.28,0,0,0,.27,2.92,3.32,3.32,0,0,0,.82,1.59,2.52,2.52,0,0,0,1.44.7,11.42,11.42,0,0,0,2.06.16v1.87c-1.51.62-2.78,1.09-3.81,1.4a11.69,11.69,0,0,1-3.35.47,7.32,7.32,0,0,1-4.67-1.41,8.59,8.59,0,0,1-2.72-4,14.79,14.79,0,0,1-4.17,4,11.1,11.1,0,0,1-6,1.48,14.58,14.58,0,0,1-5.06-.78,8.83,8.83,0,0,1-5.45-5.49,11.54,11.54,0,0,1-.62-3.7,10.88,10.88,0,0,1,.82-4.43,8.81,8.81,0,0,1,2.33-3.19,13.65,13.65,0,0,1,3.62-2.22,29.17,29.17,0,0,1,4.75-1.52q3.27-.78,5.17-1.36a12.48,12.48,0,0,0,2.84-1.17,2.75,2.75,0,0,0,1.21-1.28,4.79,4.79,0,0,0,.27-1.71,6.53,6.53,0,0,0-2-4.79,7.42,7.42,0,0,0-5.49-2,10.86,10.86,0,0,0-2.72.35,13.91,13.91,0,0,0-2.69,1,17.84,17.84,0,0,0-2.33,1.36,6.06,6.06,0,0,0-1.6,1.6h-.54Zm18.44,21.17c0-2.23,0-3.93,0-5.1s0-2.19,0-3.08A17.81,17.81,0,0,1,65.27,134a16.19,16.19,0,0,0-3.35,1.48,7.29,7.29,0,0,0-2.49,2.45,8.58,8.58,0,0,0-1,4.52,6.94,6.94,0,0,0,1.2,4.39,3.93,3.93,0,0,0,3.23,1.52,5.15,5.15,0,0,0,4.17-2A8.9,8.9,0,0,0,68.65,140.64Z"/><path class="cls-1" d="M87.83,106.71q-.17-6.39-.47-12.92c.67.1,1.53.19,2.57.27s2.12.12,3.27.12,2.23,0,3.26-.12,1.9-.17,2.57-.27q-.15,3.27-.27,6.61c-.08,2.23-.14,4.75-.2,7.55s-.09,6-.11,9.61,0,7.9,0,12.88a13.47,13.47,0,0,0,0,1.4.31.31,0,0,0,.35.31c.2,0,.71-.4,1.52-1.2s1.84-2,3.11-3.47,2.75-3.3,4.43-5.41,3.55-4.44,5.57-7q.93.16,1.83.27a13.61,13.61,0,0,0,1.83.12,15.76,15.76,0,0,0,1.86-.12l2.49-.27q-1,1.17-3,3.19l-4.09,4.17c-1.4,1.42-2.72,2.79-4,4.08s-2.15,2.26-2.72,2.88c.21.31.66,1,1.36,2.18s1.54,2.5,2.53,4.09,2,3.26,3.11,5,2.12,3.51,3.08,5.14,1.8,3.06,2.53,4.28l1.4,2.37q-1.64-.15-3.12-.15h-6a28.65,28.65,0,0,0-2.91.15,11.31,11.31,0,0,1-1.29-1.94c-.6-1-1.27-2.22-2-3.54s-1.53-2.71-2.34-4.17-1.57-2.78-2.29-4-1.38-2.22-2-3-1-1.17-1.17-1.17-.35.16-.42.47A18.34,18.34,0,0,0,98,138v4.36c0,.67,0,1.5,0,2.49s0,2,.08,3,.07,2,.15,2.84a9.73,9.73,0,0,0,.27,1.79,26.12,26.12,0,0,0-2.8-.15h-5.6a26.26,26.26,0,0,0-2.8.15q.31-6.3.47-12.68t.15-14v-5.06Q88,113.09,87.83,106.71Z"/><path class="cls-1" d="M133.08,133.86a25.83,25.83,0,0,0,.62,5.84,14.54,14.54,0,0,0,1.91,4.71,9,9,0,0,0,7.9,4.24,14.55,14.55,0,0,0,9.57-3.5l.93.7-1.71,4.36a16,16,0,0,1-4.67,2.37,23.4,23.4,0,0,1-7.16.9,24.62,24.62,0,0,1-7.24-1,15.57,15.57,0,0,1-6-3.47,16.86,16.86,0,0,1-4.12-6.11,23.23,23.23,0,0,1-1.52-8.83,25.61,25.61,0,0,1,1.36-8.79A17.37,17.37,0,0,1,126.7,119a15.31,15.31,0,0,1,5.72-3.73,20.24,20.24,0,0,1,7.2-1.25q7.69,0,11.78,4.51t4.09,12.77v1.63a3.54,3.54,0,0,1-.08.93Zm12-3.5a30,30,0,0,0-1.44-9.34q-1.27-3.49-4.32-3.5a3.91,3.91,0,0,0-2.88,1.17,8.46,8.46,0,0,0-1.86,3,19.52,19.52,0,0,0-1.05,4.12,37.4,37.4,0,0,0-.43,4.55Z"/><path class="cls-1" d="M22.69,194.33a23.75,23.75,0,0,1,1.6-9.1,19,19,0,0,1,4.24-6.5,16.91,16.91,0,0,1,6.11-3.89,20.2,20.2,0,0,1,7.12-1.29q9.1,0,14.08,5.14t5,13.93a24.56,24.56,0,0,1-1.4,8.56,18.7,18.7,0,0,1-3.93,6.5,15.89,15.89,0,0,1-6,4,21.65,21.65,0,0,1-7.7,1.32,25.89,25.89,0,0,1-6.89-.93,16.66,16.66,0,0,1-6.11-3.16,16.19,16.19,0,0,1-4.4-5.79A20.81,20.81,0,0,1,22.69,194.33Zm26.61-2.88q0-6.84-1.71-10.62a5.83,5.83,0,0,0-5.68-3.77c-2.38,0-4.27,1.4-5.64,4.2s-2.06,7.18-2.06,13.15a44.14,44.14,0,0,0,.39,6.07,18.48,18.48,0,0,0,1.28,4.86,8.24,8.24,0,0,0,2.34,3.23,5.53,5.53,0,0,0,3.61,1.17Q49.3,209.74,49.3,191.45Z"/><path class="cls-1" d="M87.21,188.18q2.3-6.77,4.55-13.62c.57.11,1.12.2,1.64.28a11,11,0,0,0,3.11,0l1.71-.28q-1.25,3-3,7.05c-1.2,2.67-2.45,5.6-3.78,8.79s-2.67,6.62-4,10.27-2.66,7.44-3.86,11.33a13.88,13.88,0,0,0-2.1-.16h-4.2a14.08,14.08,0,0,0-2.1.16q-1.56-4.44-3.46-9.81t-3.78-10.54Q66,186.47,64.37,182c-1.09-3-2-5.47-2.72-7.4,1.09.11,2.14.2,3.15.28s2,.11,3,.11,2,0,2.92-.11,1.94-.17,2.92-.28q2.1,6.85,4.24,13.62t4.4,13.62h.16Q84.91,195,87.21,188.18Z"/><path class="cls-1" d="M110.22,193.4a25.79,25.79,0,0,0,.63,5.83,14.53,14.53,0,0,0,1.9,4.71,9.46,9.46,0,0,0,3.27,3.12,9.23,9.23,0,0,0,4.63,1.12,14.5,14.5,0,0,0,9.57-3.5l.94.7-1.72,4.36a15.47,15.47,0,0,1-4.66,2.37,23.44,23.44,0,0,1-7.16.9,24.52,24.52,0,0,1-7.24-1,15.48,15.48,0,0,1-6-3.46,17,17,0,0,1-4.13-6.11,23.29,23.29,0,0,1-1.51-8.84,25.61,25.61,0,0,1,1.36-8.79,17.3,17.3,0,0,1,3.77-6.23,15.47,15.47,0,0,1,5.72-3.73,20.32,20.32,0,0,1,7.2-1.25q7.71,0,11.79,4.52t4.09,12.76v1.63a3.69,3.69,0,0,1-.08.94Zm12-3.5a30.46,30.46,0,0,0-1.44-9.34c-.86-2.34-2.3-3.5-4.32-3.5a3.91,3.91,0,0,0-2.88,1.16,8.48,8.48,0,0,0-1.87,3,19.52,19.52,0,0,0-1,4.12,39.47,39.47,0,0,0-.43,4.56Z"/><path class="cls-1" d="M148.52,184.22a19.45,19.45,0,0,1,4.9-7.9,10,10,0,0,1,6.85-2.53,4.16,4.16,0,0,1,.66,0,5.35,5.35,0,0,0,.58,0,25.11,25.11,0,0,0-.35,2.5c-.07.88-.11,1.92-.11,3.11v3.81a9.18,9.18,0,0,0,.08,1.32l-.7.63a8.59,8.59,0,0,0-1.76-.78,7.15,7.15,0,0,0-2.21-.31,7,7,0,0,0-5.53,2.29,7.92,7.92,0,0,0-2,5.41V195q0,4.76.11,9t.51,8.1a16.19,16.19,0,0,0-2.53-.16h-6.57a17.38,17.38,0,0,0-2.57.16q.39-3.9.5-8.1t.12-9v-3.11q0-4.74-.12-8.91t-.5-8.37c.88.11,1.77.2,2.68.28s1.8.11,2.69.11,1.77,0,2.68-.11,1.8-.17,2.69-.28l-.24,9.5Z"/><path class="cls-1" d="M31,9.62H27.72V30.93H25.26V9.62H22v-2h9Z"/><path class="cls-1" d="M47.69,7.64V30.93H45.21V20.28H41.48V30.93H39V7.64h2.45V18.29h3.73V7.64Z"/><path class="cls-1" d="M63.8,29v2H56.33V7.64h7.33v2H58.78v8.2h4.29v2H58.78V29Z"/></svg>